<mxfile host="app.diagrams.net" modified="2021-03-06T06:51:23.516Z" agent="5.0 (Windows NT 10.0; Win64; x64) AppleWebKit/537.36 (KHTML, like Gecko) Chrome/89.0.4389.72 Safari/537.36" etag="79s4EPEKShEJXH5Z-I1s" version="14.2.4" type="github">
  <diagram id="fWpFa4HapkN98GGFPkd4" name="Page-1">
    <mxGraphModel dx="1038" dy="548" grid="1" gridSize="10" guides="1" tooltips="1" connect="1" arrows="1" fold="1" page="1" pageScale="1" pageWidth="827" pageHeight="1169" math="0" shadow="0">
      <root>
        <mxCell id="0" />
        <mxCell id="1" parent="0" />
        <mxCell id="e0-jeHQ1uE10udrW1kDW-1" value="&lt;p style=&quot;margin: 0px ; margin-top: 4px ; text-align: center&quot;&gt;&lt;i&gt;&amp;lt;&amp;lt;Interface&amp;gt;&amp;gt;&lt;/i&gt;&lt;br&gt;&lt;b&gt;IPaperCup&lt;/b&gt;&lt;/p&gt;&lt;p style=&quot;margin: 0px ; margin-left: 4px&quot;&gt;&lt;br&gt;&lt;/p&gt;&lt;hr size=&quot;1&quot;&gt;&lt;p style=&quot;margin: 0px ; margin-left: 4px&quot;&gt;+ takeWater(Type): Type&lt;/p&gt;" style="verticalAlign=top;align=left;overflow=fill;fontSize=12;fontFamily=Helvetica;html=1;" vertex="1" parent="1">
          <mxGeometry x="310" y="40" width="190" height="90" as="geometry" />
        </mxCell>
        <mxCell id="e0-jeHQ1uE10udrW1kDW-2" value="纸杯有一个功能：装水" style="shape=note;size=20;whiteSpace=wrap;html=1;" vertex="1" parent="1">
          <mxGeometry x="40" y="50" width="180" height="70" as="geometry" />
        </mxCell>
        <mxCell id="e0-jeHQ1uE10udrW1kDW-3" value="" style="endArrow=none;html=1;rounded=0;dashed=1;dashPattern=1 2;" edge="1" parent="1">
          <mxGeometry relative="1" as="geometry">
            <mxPoint x="220" y="90" as="sourcePoint" />
            <mxPoint x="310" y="90" as="targetPoint" />
          </mxGeometry>
        </mxCell>
        <mxCell id="e0-jeHQ1uE10udrW1kDW-4" value="" style="resizable=0;html=1;align=right;verticalAlign=bottom;" connectable="0" vertex="1" parent="e0-jeHQ1uE10udrW1kDW-3">
          <mxGeometry x="1" relative="1" as="geometry" />
        </mxCell>
        <mxCell id="e0-jeHQ1uE10udrW1kDW-5" value="PaperCup" style="swimlane;fontStyle=1;align=center;verticalAlign=top;childLayout=stackLayout;horizontal=1;startSize=26;horizontalStack=0;resizeParent=1;resizeParentMax=0;resizeLast=0;collapsible=1;marginBottom=0;" vertex="1" parent="1">
          <mxGeometry x="330" y="180" width="160" height="60" as="geometry" />
        </mxCell>
        <mxCell id="e0-jeHQ1uE10udrW1kDW-7" value="" style="line;strokeWidth=1;fillColor=none;align=left;verticalAlign=middle;spacingTop=-1;spacingLeft=3;spacingRight=3;rotatable=0;labelPosition=right;points=[];portConstraint=eastwest;" vertex="1" parent="e0-jeHQ1uE10udrW1kDW-5">
          <mxGeometry y="26" width="160" height="8" as="geometry" />
        </mxCell>
        <mxCell id="e0-jeHQ1uE10udrW1kDW-8" value="+ takeWater(type): type" style="text;strokeColor=none;fillColor=none;align=left;verticalAlign=top;spacingLeft=4;spacingRight=4;overflow=hidden;rotatable=0;points=[[0,0.5],[1,0.5]];portConstraint=eastwest;" vertex="1" parent="e0-jeHQ1uE10udrW1kDW-5">
          <mxGeometry y="34" width="160" height="26" as="geometry" />
        </mxCell>
        <mxCell id="e0-jeHQ1uE10udrW1kDW-9" value="" style="endArrow=block;dashed=1;endFill=0;endSize=12;html=1;entryX=0.5;entryY=1;entryDx=0;entryDy=0;exitX=0.463;exitY=-0.01;exitDx=0;exitDy=0;exitPerimeter=0;" edge="1" parent="1" source="e0-jeHQ1uE10udrW1kDW-5" target="e0-jeHQ1uE10udrW1kDW-1">
          <mxGeometry width="160" relative="1" as="geometry">
            <mxPoint x="400" y="200" as="sourcePoint" />
            <mxPoint x="400" y="140" as="targetPoint" />
            <Array as="points">
              <mxPoint x="405" y="140" />
            </Array>
          </mxGeometry>
        </mxCell>
        <mxCell id="e0-jeHQ1uE10udrW1kDW-10" value="&lt;p style=&quot;margin: 0px ; margin-top: 4px ; text-align: center&quot;&gt;&lt;i&gt;&amp;lt;&amp;lt;Interface&amp;gt;&amp;gt;&lt;/i&gt;&lt;br&gt;&lt;b&gt;IPaperCup&lt;/b&gt;&lt;/p&gt;&lt;p style=&quot;margin: 0px ; margin-left: 4px&quot;&gt;&lt;br&gt;&lt;/p&gt;&lt;hr size=&quot;1&quot;&gt;&lt;p style=&quot;margin: 0px ; margin-left: 4px&quot;&gt;+ takeWater(Type): Type&lt;/p&gt;&lt;p style=&quot;margin: 0px ; margin-left: 4px&quot;&gt;+ seedFlowers(Type): Type&lt;br&gt;&lt;/p&gt;" style="verticalAlign=top;align=left;overflow=fill;fontSize=12;fontFamily=Helvetica;html=1;" vertex="1" parent="1">
          <mxGeometry x="310" y="290" width="190" height="100" as="geometry" />
        </mxCell>
        <mxCell id="e0-jeHQ1uE10udrW1kDW-11" value="纸杯有两个功能：装水" style="shape=note;size=20;whiteSpace=wrap;html=1;" vertex="1" parent="1">
          <mxGeometry x="40" y="300" width="180" height="70" as="geometry" />
        </mxCell>
        <mxCell id="e0-jeHQ1uE10udrW1kDW-12" value="" style="endArrow=none;html=1;rounded=0;dashed=1;dashPattern=1 2;" edge="1" parent="1">
          <mxGeometry relative="1" as="geometry">
            <mxPoint x="220" y="340" as="sourcePoint" />
            <mxPoint x="310" y="340" as="targetPoint" />
          </mxGeometry>
        </mxCell>
        <mxCell id="e0-jeHQ1uE10udrW1kDW-13" value="" style="resizable=0;html=1;align=right;verticalAlign=bottom;" connectable="0" vertex="1" parent="e0-jeHQ1uE10udrW1kDW-12">
          <mxGeometry x="1" relative="1" as="geometry" />
        </mxCell>
        <mxCell id="e0-jeHQ1uE10udrW1kDW-14" value="PaperCup" style="swimlane;fontStyle=1;align=center;verticalAlign=top;childLayout=stackLayout;horizontal=1;startSize=26;horizontalStack=0;resizeParent=1;resizeParentMax=0;resizeLast=0;collapsible=1;marginBottom=0;" vertex="1" parent="1">
          <mxGeometry x="330" y="430" width="160" height="80" as="geometry" />
        </mxCell>
        <mxCell id="e0-jeHQ1uE10udrW1kDW-15" value="" style="line;strokeWidth=1;fillColor=none;align=left;verticalAlign=middle;spacingTop=-1;spacingLeft=3;spacingRight=3;rotatable=0;labelPosition=right;points=[];portConstraint=eastwest;" vertex="1" parent="e0-jeHQ1uE10udrW1kDW-14">
          <mxGeometry y="26" width="160" height="8" as="geometry" />
        </mxCell>
        <mxCell id="e0-jeHQ1uE10udrW1kDW-16" value="+ takeWater(type): type&#xa;+ seedFlowers(type): type" style="text;strokeColor=none;fillColor=none;align=left;verticalAlign=top;spacingLeft=4;spacingRight=4;overflow=hidden;rotatable=0;points=[[0,0.5],[1,0.5]];portConstraint=eastwest;" vertex="1" parent="e0-jeHQ1uE10udrW1kDW-14">
          <mxGeometry y="34" width="160" height="46" as="geometry" />
        </mxCell>
        <mxCell id="e0-jeHQ1uE10udrW1kDW-17" value="" style="endArrow=block;dashed=1;endFill=0;endSize=12;html=1;entryX=0.5;entryY=1;entryDx=0;entryDy=0;exitX=0.463;exitY=-0.01;exitDx=0;exitDy=0;exitPerimeter=0;" edge="1" parent="1" source="e0-jeHQ1uE10udrW1kDW-14" target="e0-jeHQ1uE10udrW1kDW-10">
          <mxGeometry width="160" relative="1" as="geometry">
            <mxPoint x="400" y="450" as="sourcePoint" />
            <mxPoint x="400" y="390" as="targetPoint" />
            <Array as="points">
              <mxPoint x="405" y="390" />
            </Array>
          </mxGeometry>
        </mxCell>
        <mxCell id="e0-jeHQ1uE10udrW1kDW-21" value="&lt;p style=&quot;margin: 0px ; margin-top: 4px ; text-align: center&quot;&gt;&lt;i&gt;&amp;lt;&amp;lt;Interface&amp;gt;&amp;gt;&lt;/i&gt;&lt;br&gt;&lt;b&gt;IPaperCup&lt;/b&gt;&lt;/p&gt;&lt;p style=&quot;margin: 0px ; margin-left: 4px&quot;&gt;&lt;br&gt;&lt;/p&gt;&lt;hr size=&quot;1&quot;&gt;&lt;p style=&quot;margin: 0px ; margin-left: 4px&quot;&gt;+ cupOperation(Type): Type&lt;/p&gt;" style="verticalAlign=top;align=left;overflow=fill;fontSize=12;fontFamily=Helvetica;html=1;" vertex="1" parent="1">
          <mxGeometry x="310" y="600" width="190" height="100" as="geometry" />
        </mxCell>
        <mxCell id="e0-jeHQ1uE10udrW1kDW-22" value="纸杯接口" style="shape=note;size=20;whiteSpace=wrap;html=1;" vertex="1" parent="1">
          <mxGeometry x="50" y="615" width="180" height="70" as="geometry" />
        </mxCell>
        <mxCell id="e0-jeHQ1uE10udrW1kDW-23" value="" style="endArrow=none;html=1;rounded=0;dashed=1;dashPattern=1 2;" edge="1" parent="1">
          <mxGeometry relative="1" as="geometry">
            <mxPoint x="220" y="650" as="sourcePoint" />
            <mxPoint x="310" y="650" as="targetPoint" />
          </mxGeometry>
        </mxCell>
        <mxCell id="e0-jeHQ1uE10udrW1kDW-24" value="" style="resizable=0;html=1;align=right;verticalAlign=bottom;" connectable="0" vertex="1" parent="e0-jeHQ1uE10udrW1kDW-23">
          <mxGeometry x="1" relative="1" as="geometry" />
        </mxCell>
        <mxCell id="e0-jeHQ1uE10udrW1kDW-25" value="PaperCupWater" style="swimlane;fontStyle=1;align=center;verticalAlign=top;childLayout=stackLayout;horizontal=1;startSize=26;horizontalStack=0;resizeParent=1;resizeParentMax=0;resizeLast=0;collapsible=1;marginBottom=0;" vertex="1" parent="1">
          <mxGeometry x="190" y="770" width="160" height="80" as="geometry" />
        </mxCell>
        <mxCell id="e0-jeHQ1uE10udrW1kDW-26" value="" style="line;strokeWidth=1;fillColor=none;align=left;verticalAlign=middle;spacingTop=-1;spacingLeft=3;spacingRight=3;rotatable=0;labelPosition=right;points=[];portConstraint=eastwest;" vertex="1" parent="e0-jeHQ1uE10udrW1kDW-25">
          <mxGeometry y="26" width="160" height="8" as="geometry" />
        </mxCell>
        <mxCell id="e0-jeHQ1uE10udrW1kDW-27" value="+ takeWater(type): type" style="text;strokeColor=none;fillColor=none;align=left;verticalAlign=top;spacingLeft=4;spacingRight=4;overflow=hidden;rotatable=0;points=[[0,0.5],[1,0.5]];portConstraint=eastwest;" vertex="1" parent="e0-jeHQ1uE10udrW1kDW-25">
          <mxGeometry y="34" width="160" height="46" as="geometry" />
        </mxCell>
        <mxCell id="e0-jeHQ1uE10udrW1kDW-28" value="" style="endArrow=block;dashed=1;endFill=0;endSize=12;html=1;entryX=0.25;entryY=1;entryDx=0;entryDy=0;exitX=0.463;exitY=-0.01;exitDx=0;exitDy=0;exitPerimeter=0;" edge="1" parent="1" source="e0-jeHQ1uE10udrW1kDW-25" target="e0-jeHQ1uE10udrW1kDW-21">
          <mxGeometry width="160" relative="1" as="geometry">
            <mxPoint x="400" y="760" as="sourcePoint" />
            <mxPoint x="400" y="700" as="targetPoint" />
            <Array as="points" />
          </mxGeometry>
        </mxCell>
        <mxCell id="e0-jeHQ1uE10udrW1kDW-29" value="PaperCupFlowerSeeding" style="swimlane;fontStyle=1;align=center;verticalAlign=top;childLayout=stackLayout;horizontal=1;startSize=26;horizontalStack=0;resizeParent=1;resizeParentMax=0;resizeLast=0;collapsible=1;marginBottom=0;" vertex="1" parent="1">
          <mxGeometry x="450" y="770" width="160" height="80" as="geometry" />
        </mxCell>
        <mxCell id="e0-jeHQ1uE10udrW1kDW-30" value="" style="line;strokeWidth=1;fillColor=none;align=left;verticalAlign=middle;spacingTop=-1;spacingLeft=3;spacingRight=3;rotatable=0;labelPosition=right;points=[];portConstraint=eastwest;" vertex="1" parent="e0-jeHQ1uE10udrW1kDW-29">
          <mxGeometry y="26" width="160" height="8" as="geometry" />
        </mxCell>
        <mxCell id="e0-jeHQ1uE10udrW1kDW-31" value="+ seedFlowers(type): type" style="text;strokeColor=none;fillColor=none;align=left;verticalAlign=top;spacingLeft=4;spacingRight=4;overflow=hidden;rotatable=0;points=[[0,0.5],[1,0.5]];portConstraint=eastwest;" vertex="1" parent="e0-jeHQ1uE10udrW1kDW-29">
          <mxGeometry y="34" width="160" height="46" as="geometry" />
        </mxCell>
        <mxCell id="e0-jeHQ1uE10udrW1kDW-32" value="" style="endArrow=block;dashed=1;endFill=0;endSize=12;html=1;exitX=0.5;exitY=0;exitDx=0;exitDy=0;entryX=0.75;entryY=1;entryDx=0;entryDy=0;" edge="1" parent="1" source="e0-jeHQ1uE10udrW1kDW-29" target="e0-jeHQ1uE10udrW1kDW-21">
          <mxGeometry width="160" relative="1" as="geometry">
            <mxPoint x="330" y="680" as="sourcePoint" />
            <mxPoint x="490" y="680" as="targetPoint" />
          </mxGeometry>
        </mxCell>
      </root>
    </mxGraphModel>
  </diagram>
</mxfile>
